<svg
  fill="none"
  height="256"
  viewBox="0 0 256 256"
  width="256"
  xmlns="http://www.w3.org/2000/svg"
>
  <title>EpicParty Tools Logo Mark</title>
  <g id="EpicParty Tools / Logomark / Branded">
    <g id="EpicParty Pro Logomark">
      <g id="EpicParty / Logomark with Container / With Details / Fill">
        <path
          d="M0 21.3333C0 9.55125 9.55126 0 21.3333 0H234.667C246.449 0 256 9.55126 256 21.3333V234.667C256 246.449 246.449 256 234.667 256H21.3333C9.55125 256 0 246.449 0 234.667V21.3333Z"
          fill="#7600FF"
          id="Container"
        />
        <g id="EpicParty / Logomark / Cut">
          <path
            d="M147.594 20.0761C147.86 19.8795 148.222 20.0932 148.221 20.4345C148.205 30.609 154.028 33.4939 155.438 35.2353C155.469 35.2741 155.505 35.307 155.547 35.3329C175.478 47.743 180.935 59.2119 184.219 70.4433C184.239 70.5129 184.278 70.5776 184.328 70.6279C195.973 82.2536 196.823 85.7392 200.949 98.8417C200.988 98.9643 201.08 99.0661 201.196 99.1113C210.242 102.642 215.367 109.514 215.5 116.608C215.5 128.828 208.84 138.087 196.029 141.957C184.49 145.807 167.752 141.311 141.077 135.504C141.018 135.491 140.952 135.493 140.893 135.509C125.831 139.6 131.053 159.22 147.215 156.14C159.447 154.715 177.115 148.186 192.178 164.33C211.715 186.548 188.696 232.516 152.537 235.592C126.904 238.915 99.1149 221.484 92.4095 201.012C92.2745 200.6 92.7569 200.301 93.0579 200.602C119.887 227.371 160.184 228.434 170.625 203.11C170.647 203.058 170.658 203.005 170.66 202.948C170.74 200.966 173.436 191.284 161.938 191.752C154.803 192.346 141.099 202.079 127.168 201.644C100.753 201.454 81.5144 181.259 77.5257 151.74C77.487 151.454 77.1969 151.284 76.9495 151.411C68.5296 155.76 54.2432 162.893 40.2659 157.85C39.9524 157.736 39.9051 157.295 40.1829 157.105C44.8558 153.919 48.6122 152.603 54.344 146.142C60.6721 137.282 66.3437 129.674 74.4446 122.481C74.7949 122.169 74.4397 121.508 74.0012 121.653C60.624 126.094 44.7477 124.028 40.2874 115.729C40.1336 115.443 40.3563 115.1 40.6692 115.117C43.8387 115.29 57.0739 115.387 68.8411 106.162C77.0515 99.8697 86.307 93.2873 90.5159 90.4667C90.9041 90.2066 90.6062 89.2062 90.1458 89.2245C65.667 90.1986 50.6486 76.452 46.9993 63.0839C46.9013 62.725 47.2703 62.4216 47.5862 62.5937C50.2642 64.0551 59.2601 68.4969 72.2386 70.0742C78.4027 70.3498 81.8234 70.3694 87.8684 70.0742C105.073 67.4488 110.615 66.2485 119.772 65.791C120.233 65.7679 120.317 65.0503 119.875 64.9101C107.69 61.0452 103.744 57.4712 103.509 57.2519C103.501 57.2444 103.493 57.2374 103.485 57.2304C91.8346 47.6306 87.9596 32.4178 96.2874 20.249C96.4887 19.9548 96.9267 20.06 97.0032 20.413C100.49 36.4975 110.959 43.3182 122.411 47.164C134.953 50.5886 148.476 52.3681 160.607 60.2519C161.01 60.5141 161.468 59.9636 161.143 59.6005C152.407 49.8369 142.483 43.6748 141.432 34.58C140.795 28.993 142.564 23.7929 147.594 20.0761ZM73.972 167.648C74.1662 167.424 74.5168 167.49 74.6311 167.768C77.9829 175.934 81.9788 182.728 81.9788 187.598C80.9817 197.117 71.4274 202.436 61.4729 200.445C61.1709 200.385 61.0559 200.006 61.2796 199.784C63.0698 198.012 65.5046 196.925 67.1428 189.972C68.692 182.781 68.1864 174.343 73.972 167.648ZM199.047 109.438C197.416 109.438 196.094 111.705 196.094 114.501C196.094 117.297 197.416 119.563 199.047 119.563C200.678 119.563 202 117.296 202 114.501C202 111.705 200.678 109.439 199.047 109.438ZM157.82 84.5624C152.042 84.1672 147.168 88.5107 145.465 96.1884C145.125 97.7239 144.787 99.5607 144.967 100.448C145.148 101.335 145.499 101.606 145.851 101.876C147.961 103.497 151.465 104.092 156.543 104.549C161.621 105.006 165.124 105.3 167.394 104.498C167.744 104.467 168.092 104.135 168.436 103.202C168.78 102.269 168.594 100.478 168.584 98.9736C167.832 90.6085 163.599 85.2588 157.82 84.5624Z"
            fill="white"
            id="Subtract"
          />
        </g>
      </g>
    </g>
  </g>
</svg>
